<svg xmlns="http://www.w3.org/2000/svg" width="1440" height="1024" viewBox="0 0 1440 1024">
  <defs>
    <style>
      .bg { fill: #0b0c0f; }
      .surface { fill: #111318; }
      .outline { stroke: #1a1d24; stroke-width: 1; }
      .text { fill: #e3e6eb; font-family: 'Inter', 'Roboto', Arial, sans-serif; }
      .muted { fill: #aeb4bf; font-family: 'Inter', 'Roboto', Arial, sans-serif; }
      .accent { fill: #86b6ff; }
    </style>
  </defs>
  <rect class="bg" width="1440" height="1024"/>
  <g>
    <rect class="surface outline" x="0" y="0" width="1440" height="64"/>
    <text class="text" x="88" y="40" font-size="18" font-weight="600">AODS — Reports</text>
  </g>
  <g>
    <rect class="surface outline" x="0" y="64" width="240" height="960"/>
  </g>
  <g>
    <rect class="surface outline" x="256" y="88" width="1152" height="848" rx="16"/>
    <text class="muted" x="280" y="116" font-size="14" font-weight="600">Report Library</text>
    <g>
      <rect x="280" y="140" width="256" height="160" rx="14" fill="#0f1116" stroke="#22262f"/>
      <text class="text" x="300" y="172" font-size="14" font-weight="600">Executive Summary</text>
      <text class="muted" x="300" y="196" font-size="12">Last generated: 2h ago</text>
      <rect x="300" y="212" width="92" height="32" rx="16" class="accent"/>
      <text class="bg" x="326" y="233" font-size="12" font-weight="600">Download</text>
    </g>
    <g>
      <rect x="552" y="140" width="256" height="160" rx="14" fill="#0f1116" stroke="#22262f"/>
      <text class="text" x="572" y="172" font-size="14" font-weight="600">OWASP Full</text>
      <text class="muted" x="572" y="196" font-size="12">Last generated: 1d ago</text>
      <rect x="572" y="212" width="92" height="32" rx="16" class="accent"/>
      <text class="bg" x="598" y="233" font-size="12" font-weight="600">Download</text>
    </g>
    <g>
      <rect x="824" y="140" width="256" height="160" rx="14" fill="#0f1116" stroke="#22262f"/>
      <text class="text" x="844" y="172" font-size="14" font-weight="600">Delta Report</text>
      <text class="muted" x="844" y="196" font-size="12">Last generated: 3d ago</text>
      <rect x="844" y="212" width="92" height="32" rx="16" class="accent"/>
      <text class="bg" x="870" y="233" font-size="12" font-weight="600">Download</text>
    </g>
  </g>
</svg>